<?xml version="1.0" encoding="UTF-8" standalone="no"?>
<!-- Created with Inkscape (http://www.inkscape.org/) -->

<svg
   version="1.1"
   id="svg2"
   xml:space="preserve"
   width="378.48801"
   height="378.48801"
   viewBox="0 0 378.48801 378.48801"
   sodipodi:docname="culo.pdf"
   xmlns:inkscape="http://www.inkscape.org/namespaces/inkscape"
   xmlns:sodipodi="http://sodipodi.sourceforge.net/DTD/sodipodi-0.dtd"
   xmlns="http://www.w3.org/2000/svg"
   xmlns:svg="http://www.w3.org/2000/svg"><defs
     id="defs6"><clipPath
       clipPathUnits="userSpaceOnUse"
       id="clipPath170"><path
         d="M 0,0 H 283.47128 V 283.47128 H 0 Z"
         id="path168" /></clipPath></defs><sodipodi:namedview
     id="namedview4"
     pagecolor="#ffffff"
     bordercolor="#666666"
     borderopacity="1.0"
     inkscape:pageshadow="2"
     inkscape:pageopacity="0.0"
     inkscape:pagecheckerboard="0" /><g
     id="g8"
     inkscape:groupmode="layer"
     inkscape:label="culo"
     transform="matrix(1.3333333,0,0,-1.3333333,0,378.488)"><g
       id="g10"
       transform="translate(0.199,0.199)"><g
         id="g12"><g
           id="g14"><g
             id="g16" /><g
             id="g18" /><g
             id="g20"><g
               id="g22" /></g><g
             id="g24" /><g
             id="g26" /><g
             id="g28" /><g
             id="g30" /><g
             id="g32"
             transform="translate(-0.199,-0.199)"><g
               id="g34"
               transform="translate(0.199,0.199)"><g
                 id="g36"><g
                   id="g38"><g
                     id="g40"><g
                       id="g42"><g
                         id="g44"><path
                           d="m 113.3885,54.56822 v 4.25205 m 56.69426,-4.25205 v 4.25205 m 56.69426,-4.25205 v 4.25205"
                           style="fill:none;stroke:#808080;stroke-width:0.19925;stroke-linecap:round;stroke-linejoin:round;stroke-miterlimit:10;stroke-dasharray:none;stroke-opacity:1"
                           id="path46" /></g></g><g
                       id="g48"><g
                         id="g50"><path
                           d="m 54.56822,113.3885 h 4.25205 m -4.25205,56.69426 h 4.25205 m -4.25205,56.69426 h 4.25205"
                           style="fill:none;stroke:#808080;stroke-width:0.19925;stroke-linecap:round;stroke-linejoin:round;stroke-miterlimit:10;stroke-dasharray:none;stroke-opacity:1"
                           id="path52" /></g></g><path
                       d="M 0,56.69424 H 281.47876"
                       style="fill:none;stroke:#000000;stroke-width:0.3985;stroke-linecap:round;stroke-linejoin:round;stroke-miterlimit:10;stroke-dasharray:none;stroke-opacity:1"
                       id="path54" /><g
                       id="g56"
                       transform="translate(281.47876,56.69424)"><g
                         id="g58"><path
                           d="M 1.99252,0 -1.19551,1.59401 0,0 -1.19551,-1.59401"
                           style="fill:#000000;fill-opacity:1;fill-rule:nonzero;stroke:none"
                           id="path60" /></g></g><path
                       d="M 56.69424,0 V 281.47876"
                       style="fill:none;stroke:#000000;stroke-width:0.3985;stroke-linecap:round;stroke-linejoin:round;stroke-miterlimit:10;stroke-dasharray:none;stroke-opacity:1"
                       id="path62" /><g
                       id="g64"
                       transform="rotate(90,-112.39226,169.0865)"><g
                         id="g66"><path
                           d="M 1.99252,0 -1.19551,1.59401 0,0 -1.19551,-1.59401"
                           style="fill:#000000;fill-opacity:1;fill-rule:nonzero;stroke:none"
                           id="path68" /></g></g><g
                       id="g70"><g
                         id="g72"
                         transform="translate(110.897,44.628)"><g
                           id="g74"><g
                             id="g76"
                             transform="translate(-111.096,-44.827)"><text
                               transform="matrix(1,0,0,-1,111.096,44.827)"
                               style="font-variant:normal;font-weight:normal;font-size:9.9626px;font-family:CMR10;-inkscape-font-specification:CMR10;writing-mode:lr-tb;fill:#000000;fill-opacity:1;fill-rule:nonzero;stroke:none"
                               id="text80"><tspan
                                 x="0"
                                 y="0"
                                 id="tspan78">1</tspan></text><g
                               id="g82"
                               transform="translate(111.096,44.827)" /></g></g><g
                           id="g84"
                           transform="translate(-110.897,-44.628)" /></g></g><g
                       id="g86"><g
                         id="g88"
                         transform="translate(167.59,44.628)"><g
                           id="g90"><g
                             id="g92"
                             transform="translate(-167.789,-44.827)"><text
                               transform="matrix(1,0,0,-1,167.789,44.827)"
                               style="font-variant:normal;font-weight:normal;font-size:9.9626px;font-family:CMR10;-inkscape-font-specification:CMR10;writing-mode:lr-tb;fill:#000000;fill-opacity:1;fill-rule:nonzero;stroke:none"
                               id="text96"><tspan
                                 x="0"
                                 y="0"
                                 id="tspan94">2</tspan></text><g
                               id="g98"
                               transform="translate(167.789,44.827)" /></g></g><g
                           id="g100"
                           transform="translate(-167.59,-44.628)" /></g></g><g
                       id="g102"><g
                         id="g104"
                         transform="translate(224.284,44.628)"><g
                           id="g106"><g
                             id="g108"
                             transform="translate(-224.483,-44.827)"><text
                               transform="matrix(1,0,0,-1,224.483,44.827)"
                               style="font-variant:normal;font-weight:normal;font-size:9.9626px;font-family:CMR10;-inkscape-font-specification:CMR10;writing-mode:lr-tb;fill:#000000;fill-opacity:1;fill-rule:nonzero;stroke:none"
                               id="text112"><tspan
                                 x="0"
                                 y="0"
                                 id="tspan110">3</tspan></text><g
                               id="g114"
                               transform="translate(224.483,44.827)" /></g></g><g
                           id="g116"
                           transform="translate(-224.284,-44.628)" /></g></g><g
                       id="g118"><g
                         id="g120"
                         transform="translate(46.067,110.177)"><g
                           id="g122"><g
                             id="g124"
                             transform="translate(-46.266,-110.376)"><text
                               transform="matrix(1,0,0,-1,46.266,110.376)"
                               style="font-variant:normal;font-weight:normal;font-size:9.9626px;font-family:CMR10;-inkscape-font-specification:CMR10;writing-mode:lr-tb;fill:#000000;fill-opacity:1;fill-rule:nonzero;stroke:none"
                               id="text128"><tspan
                                 x="0"
                                 y="0"
                                 id="tspan126">1</tspan></text><g
                               id="g130"
                               transform="translate(46.266,110.376)" /></g></g><g
                           id="g132"
                           transform="translate(-46.067,-110.177)" /></g></g><g
                       id="g134"><g
                         id="g136"
                         transform="translate(46.067,166.871)"><g
                           id="g138"><g
                             id="g140"
                             transform="translate(-46.266,-167.07)"><text
                               transform="matrix(1,0,0,-1,46.266,167.07)"
                               style="font-variant:normal;font-weight:normal;font-size:9.9626px;font-family:CMR10;-inkscape-font-specification:CMR10;writing-mode:lr-tb;fill:#000000;fill-opacity:1;fill-rule:nonzero;stroke:none"
                               id="text144"><tspan
                                 x="0"
                                 y="0"
                                 id="tspan142">2</tspan></text><g
                               id="g146"
                               transform="translate(46.266,167.07)" /></g></g><g
                           id="g148"
                           transform="translate(-46.067,-166.871)" /></g></g><g
                       id="g150"><g
                         id="g152"
                         transform="translate(46.067,223.564)"><g
                           id="g154"><g
                             id="g156"
                             transform="translate(-46.266,-223.763)"><text
                               transform="matrix(1,0,0,-1,46.266,223.763)"
                               style="font-variant:normal;font-weight:normal;font-size:9.9626px;font-family:CMR10;-inkscape-font-specification:CMR10;writing-mode:lr-tb;fill:#000000;fill-opacity:1;fill-rule:nonzero;stroke:none"
                               id="text160"><tspan
                                 x="0"
                                 y="0"
                                 id="tspan158">3</tspan></text><g
                               id="g162"
                               transform="translate(46.266,223.763)" /></g></g><g
                           id="g164"
                           transform="translate(-46.067,-223.564)" /></g></g><g
                       id="g166"
                       clip-path="url(#clipPath170)"><g
                         id="g172"><path
                           d="m 68.0331,340.16554 c 0,0 1.98535,-42.45309 2.74797,-55.29391 0.76263,-12.84083 1.98583,-28.36655 2.74853,-37.2538 0.7627,-8.88725 1.98592,-20.27985 2.74854,-26.79938 0.76262,-6.51952 1.98535,-15.19771 2.74797,-20.18883 0.76262,-4.99112 1.98585,-11.83799 2.74855,-15.78367 0.76269,-3.9457 1.98584,-9.45813 2.74854,-12.65416 0.76269,-3.19605 1.9859,-7.73767 2.74853,-10.38072 0.76262,-2.64306 1.98533,-6.44713 2.74797,-8.66855 0.76262,-2.22142 1.98582,-5.44695 2.74852,-7.34192 0.76271,-1.89498 1.98585,-4.68036 2.74855,-6.31574 0.76271,-1.63537 1.98592,-4.04722 2.74853,-5.47099 0.76262,-1.42377 1.98536,-3.53758 2.74798,-4.79067 0.76262,-1.25308 1.98585,-3.12922 2.74855,-4.24072 0.76269,-1.11149 1.98591,-2.77981 2.74853,-3.77017 0.76262,-0.99034 1.98535,-2.47877 2.74797,-3.36764 0.76262,-0.88887 1.98583,-2.23536 2.74854,-3.03881 0.76269,-0.80345 1.98582,-2.02299 2.74853,-2.75195 0.7627,-0.72894 1.98592,-1.83761 2.74854,-2.50191 0.76263,-0.66429 1.98535,-1.67785 2.74796,-2.2859 0.76264,-0.60805 1.98585,-1.538 2.74854,-2.09656 0.7627,-0.55856 1.98584,-1.41446 2.74854,-1.92931 0.76269,-0.51484 1.98592,-1.3052 2.74853,-1.78133 0.76262,-0.47614 1.98535,-1.2087 2.74797,-1.65038 0.76262,-0.44168 1.98586,-1.12224 2.74855,-1.53301 0.7627,-0.41078 1.9859,-1.04441 2.74854,-1.42756 0.76262,-0.38315 1.98533,-0.97595 2.74797,-1.33402 0.76262,-0.35806 1.98584,-0.91145 2.74853,-1.2467 0.76272,-0.33525 1.98592,-0.85497 2.74854,-1.1696 0.76263,-0.31464 1.98535,-0.80225 2.74797,-1.09816 0.76263,-0.29593 1.98584,-0.75576 2.74854,-1.03469 0.76269,-0.27893 1.98585,-0.71243 2.74855,-0.97571 0.76269,-0.26326 1.98591,-0.67295 2.74853,-0.92184 0.76262,-0.24889 1.98535,-0.63637 2.74797,-0.87196 0.76262,-0.23558 1.98583,-0.60271 2.74853,-0.82602 0.7627,-0.22333 1.98583,-0.57131 2.74854,-0.78353 0.7627,-0.21222 1.98592,-0.54432 2.74854,-0.74609 0.76263,-0.20175 1.98535,-0.51627 2.74797,-0.70811 0.76263,-0.19185 1.98591,-0.49172 2.74853,-0.67467 0.76262,-0.18295 1.98535,-0.46935 2.74797,-0.64405 0.76262,-0.1747 1.98586,-0.4483 2.74855,-0.61514 0.7627,-0.16682 1.98584,-0.42798 2.74854,-0.58734 0.76269,-0.15936 1.98584,-0.40875 2.74853,-0.56126 0.7627,-0.15253 1.98583,-0.3918 2.74854,-0.53804 0.76269,-0.14623 1.98592,-0.37567 2.74853,-0.51592 0.76264,-0.14026 1.98536,-0.36043 2.74798,-0.49493 0.76263,-0.13451 1.98591,-0.34546 2.74853,-0.47455 0.76263,-0.12907 1.98535,-0.33162 2.74797,-0.45581 0.76264,-0.12421 1.98584,-0.31983 2.74854,-0.43938 0.76269,-0.11957 1.98584,-0.30737 2.74853,-0.42238 0.7627,-0.115 1.98593,-0.29568 2.74855,-0.40649 0.76262,-0.11083 1.98536,-0.28552 2.74797,-0.39232 0.76262,-0.10681 1.98583,-0.27455 2.74854,-0.37759 0.76269,-0.10305 1.98591,-0.26561 2.74855,-0.36512 0.76262,-0.09948 1.98533,-0.25603 2.74797,-0.35206 0.76262,-0.09606 1.98583,-0.24727 2.74852,-0.34017 0.76271,-0.09289 1.98584,-0.23964 2.74853,-0.32939 0.7627,-0.08975 1.98593,-0.23074 2.74855,-0.3175 0.76263,-0.08675 1.98536,-0.22368 2.74797,-0.30783 0.76262,-0.08417 1.98584,-0.2173 2.74854,-0.29878 0.76269,-0.08149 1.98592,-0.20962 2.74853,-0.28858 0.76262,-0.07898 1.98536,-0.20402 2.74798,-0.28064 0.76261,-0.0766 1.98584,-0.19738 2.74855,-0.27156 0.76269,-0.07417 1.98582,-0.19109 2.74852,-0.26306 0.76271,-0.07196 1.98591,-0.18576 2.74853,-0.25569 0.76264,-0.06993 1.98535,-0.18037 2.74797,-0.24832 0.76264,-0.06797 1.98586,-0.17545 2.74855,-0.24152 0.76269,-0.06607 1.98592,-0.17061 2.74854,-0.23473 0.76262,-0.0641 1.98535,-0.16496 2.74797,-0.22734 0.76262,-0.06238 1.98584,-0.16151 2.74853,-0.22223 0.7627,-0.06073 1.98585,-0.15637 2.74854,-0.21545 0.76269,-0.05907 1.98591,-0.15283 2.74855,-0.21033 0.76262,-0.05749 1.98533,-0.14808 2.74797,-0.20408 0.76262,-0.056 1.98582,-0.14499 2.74852,-0.19957 0.76271,-0.0546 1.98593,-0.14081 2.74855,-0.1939 0.76262,-0.05308 1.98535,-0.13705 2.74797,-0.18881 0.76262,-0.05174 1.98584,-0.13359 2.74853,-0.18423 0.7627,-0.05066 1.98584,-0.1314 2.74854,-0.18086 0.7627,-0.04948 1.98584,-0.12763 2.74854,-0.17576 0.76269,-0.04812 1.98591,-0.12436 2.74854,-0.17122 0.76262,-0.04687 1.98534,-0.12083 2.74798,-0.16667 0.76262,-0.04585 1.98582,-0.11909 2.74852,-0.16385 0.7627,-0.04475 1.98591,-0.11502 2.74853,-0.15875 0.76264,-0.04375 1.98535,-0.11362 2.74797,-0.15648 0.76264,-0.04287 1.98584,-0.11075 2.74854,-0.15251 0.76269,-0.04175 1.98593,-0.10771 2.74855,-0.14853 0.76261,-0.04082 1.98535,-0.10582 2.74797,-0.1457 0.76262,-0.03988 1.98585,-0.10257 2.74855,-0.14174 0.76269,-0.03916 1.98584,-0.10231 2.74853,-0.1406 0.7627,-0.03829 1.9859,-0.09822 2.74854,-0.13549 0.76262,-0.03728 1.98533,-0.09667 2.74797,-0.13325 0.76262,-0.03657 1.98582,-0.09452 2.74852,-0.1304 0.76271,-0.03585 1.98593,-0.09297 2.74855,-0.12811 0.76262,-0.03516 1.98535,-0.09085 2.74797,-0.12531 0.76262,-0.03443 1.98584,-0.08929 2.74854,-0.12303 0.76269,-0.03372 1.98591,-0.08714 2.74853,-0.12018 0.76262,-0.03303 1.98535,-0.08567 2.74797,-0.11792 0.76262,-0.03224 1.98584,-0.08291 2.74854,-0.11453 0.76269,-0.03161 1.98583,-0.08217 2.74855,-0.11339 0.76269,-0.03123 2.74852,-0.11168 2.74852,-0.11168"
                           style="fill:none;stroke:#000000;stroke-width:0.99628;stroke-linecap:round;stroke-linejoin:round;stroke-miterlimit:10;stroke-dasharray:none;stroke-opacity:1"
                           id="path174" /></g><g
                         id="g176"><path
                           d="M 56.69424,56.69424 V 113.3885 H 113.3885 V 56.69424 Z"
                           style="fill:#00adef;fill-opacity:1;fill-rule:nonzero;stroke:#000000;stroke-width:0.69739;stroke-linecap:round;stroke-linejoin:round;stroke-miterlimit:10;stroke-dasharray:none;stroke-opacity:1"
                           id="path178" /></g><g
                         id="g180"><path
                           d="m 113.3885,56.69424 v 28.34714 h 56.69426 V 56.69424 Z"
                           style="fill:#00adef;fill-opacity:1;fill-rule:nonzero;stroke:#000000;stroke-width:0.69739;stroke-linecap:round;stroke-linejoin:round;stroke-miterlimit:10;stroke-dasharray:none;stroke-opacity:1"
                           id="path182" /></g><g
                         id="g184"><path
                           d="m 170.08276,56.69424 v 18.89789 h 56.69426 V 56.69424 Z"
                           style="fill:#00adef;fill-opacity:1;fill-rule:nonzero;stroke:#000000;stroke-width:0.69739;stroke-linecap:round;stroke-linejoin:round;stroke-miterlimit:10;stroke-dasharray:none;stroke-opacity:1"
                           id="path186" /></g><g
                         id="g188"><g
                           id="g190"
                           transform="translate(128.663,139.243)"><g
                             id="g192"><g
                               id="g194"
                               transform="translate(-128.862,-139.442)"><text
                                 transform="matrix(1,0,0,-1,128.862,139.442)"
                                 style="font-variant:normal;font-weight:normal;font-size:9.9626px;font-family:CMMI10;-inkscape-font-specification:CMMI10;writing-mode:lr-tb;fill:#000000;fill-opacity:1;fill-rule:nonzero;stroke:none"
                                 id="text198"><tspan
                                   x="0"
                                   y="0"
                                   id="tspan196">f</tspan></text><text
                                 transform="matrix(1,0,0,-1,137.579,139.442)"
                                 style="font-variant:normal;font-weight:normal;font-size:9.9626px;font-family:CMR10;-inkscape-font-specification:CMR10;writing-mode:lr-tb;fill:#000000;fill-opacity:1;fill-rule:nonzero;stroke:none"
                                 id="text202"><tspan
                                   x="0"
                                   y="0"
                                   id="tspan200">=</tspan></text><text
                                 transform="matrix(1,0,0,-1,149.564,143.365)"
                                 style="font-variant:normal;font-weight:normal;font-size:6.9738px;font-family:CMR7;-inkscape-font-specification:CMR7;writing-mode:lr-tb;fill:#000000;fill-opacity:1;fill-rule:nonzero;stroke:none"
                                 id="text206"><tspan
                                   x="0"
                                   y="0"
                                   id="tspan204">1</tspan></text><g
                                 id="g208"
                                 transform="translate(149.291,141.933)"><path
                                   d="M 0,0 H 4.518"
                                   style="fill:none;stroke:#000000;stroke-width:0.398;stroke-linecap:butt;stroke-linejoin:round;stroke-miterlimit:10;stroke-dasharray:none;stroke-opacity:1"
                                   id="path210" /></g><text
                                 transform="matrix(1,0,0,-1,149.291,136.007)"
                                 style="font-variant:normal;font-weight:normal;font-size:6.9738px;font-family:CMMI7;-inkscape-font-specification:CMMI7;writing-mode:lr-tb;fill:#000000;fill-opacity:1;fill-rule:nonzero;stroke:none"
                                 id="text214"><tspan
                                   x="0"
                                   y="0"
                                   id="tspan212">x</tspan></text><g
                                 id="g216"
                                 transform="translate(128.862,139.442)" /></g></g><g
                             id="g218"
                             transform="translate(-128.663,-139.243)" /></g></g></g></g></g></g><g
                 id="g220"
                 transform="translate(-0.199,-0.199)" /></g><g
               id="g222"
               transform="translate(0.199,0.199)" /></g><g
             id="g224" /><g
             id="g226" /></g></g></g></g></svg>
